<?xml version="1.0" encoding="UTF-8" standalone="no"?>
<!DOCTYPE svg PUBLIC "-//W3C//DTD SVG 1.1//EN"
"http://www.w3.org/Graphics/SVG/1.1/DTD/svg11.dtd">
<svg viewBox="0 0 1466 825" version="1.1" xmlns="http://www.w3.org/2000/svg" xmlns:xlink="http://www.w3.org/1999/xlink">
<defs>
<clipPath id="c0_4"><path d="M0 825V0H1466.3V825Z"/></clipPath>
<clipPath id="c1_4"><path d="M-2.8 825V169.8H1466.7V825Z"/></clipPath>
<style type="text/css"><![CDATA[
.g0_4{
fill: #FFF;
}
.g1_4{
fill: #FFC000;
}
.g2_4{
fill: none;
stroke: #FFF;
stroke-width: 2.291;
stroke-miterlimit: 8;
}
]]></style>
</defs>
<path clip-path="url(#c0_4)" d="M0 0H1466.3V825H0Z" class="g0_4"/>
<path d="M0 0H1466.7V825H0Z" class="g0_4"/>
<g clip-path="url(#c1_4)">
<image x="0" y="169" width="1467" height="656" xlink:href="shade/1.png"/>
<image preserveAspectRatio="none" x="-2" y="51" width="1469" height="827" xlink:href="img/1.jpg"/>
</g>
<path d="M837.6 417.9h32v33.3h-32Z" class="g0_4"/>
<path d="M877.2 481.7H1265v56.8H877.2Z" class="g0_4"/>
<path fill-rule="evenodd" d="M850.6 487.2c1.4 2.8 3.5 2.8 4.9 0c5.8 -12 19.8 -41.2 20.3 -42.4v-.2c.9 -2.5 1.4 -5.2 1.4 -7.9c0 -13.4 -10.8 -24.2 -24.2 -24.2c-13.3 0 -24.1 10.8 -24.1 24.2c0 1.9 .2 3.8 .7 5.7v.1c.6 2.4 15.1 32.5 21 44.7ZM853 423c7.6 0 13.7 6.1 13.7 13.7c0 7.5 -6.1 13.6 -13.7 13.6c-7.5 0 -13.6 -6.1 -13.6 -13.6c0 -7.6 6.1 -13.7 13.6 -13.7Z" class="g1_4"/>
<path d="M850.6 487.2c1.4 2.8 3.5 2.8 4.9 0c5.8 -12 19.8 -41.2 20.3 -42.4v-.2c.9 -2.5 1.4 -5.2 1.4 -7.9c0 -13.4 -10.8 -24.2 -24.2 -24.2c-13.3 0 -24.1 10.8 -24.1 24.2c0 1.9 .2 3.8 .7 5.7v.1c.6 2.4 15.1 32.5 21 44.7ZM853 423c7.6 0 13.7 6.1 13.7 13.7c0 7.5 -6.1 13.6 -13.7 13.6c-7.5 0 -13.6 -6.1 -13.6 -13.6c0 -7.6 6.1 -13.7 13.6 -13.7Z" class="g2_4"/>
<path d="M589.6 209.4h32v33.3h-32Z" class="g0_4"/>
<path d="M669.8 209.4h358.8v70.3H669.8Z" class="g0_4"/>
<path fill-rule="evenodd" d="M602.6 278.6c1.3 2.8 3.5 2.8 4.9 0c5.8 -12 19.8 -41.1 20.3 -42.3v-.2c.9 -2.5 1.4 -5.2 1.4 -8c0 -13.3 -10.8 -24.2 -24.2 -24.2c-13.3 0 -24.1 10.9 -24.1 24.2c0 2 .2 3.9 .7 5.7v.1c.6 2.5 15.1 32.6 21 44.7ZM605 214.5c7.6 0 13.7 6.1 13.7 13.6c0 7.5 -6.1 13.6 -13.7 13.6c-7.5 0 -13.6 -6.1 -13.6 -13.6c0 -7.5 6.1 -13.6 13.6 -13.6Z" class="g1_4"/>
<path d="M602.6 278.6c1.3 2.8 3.5 2.8 4.9 0c5.8 -12 19.8 -41.1 20.3 -42.3v-.2c.9 -2.5 1.4 -5.2 1.4 -8c0 -13.3 -10.8 -24.2 -24.2 -24.2c-13.3 0 -24.1 10.9 -24.1 24.2c0 2 .2 3.9 .7 5.7v.1c.6 2.5 15.1 32.6 21 44.7ZM605 214.5c7.6 0 13.7 6.1 13.7 13.6c0 7.5 -6.1 13.6 -13.7 13.6c-7.5 0 -13.6 -6.1 -13.6 -13.6c0 -7.5 6.1 -13.6 13.6 -13.6Z" class="g2_4"/>
<path d="M188.2 403.6h32V437h-32Z" class="g0_4"/>
<path d="M268.4 403.6H468.9v56.8H268.4Z" class="g0_4"/>
<path fill-rule="evenodd" d="M201.2 472.9c1.3 2.8 3.5 2.8 4.9 0c5.8 -12 19.8 -41.1 20.3 -42.3v-.2c.9 -2.5 1.4 -5.2 1.4 -8C227.8 409 217 398.2 203.6 398.2c-13.3 0 -24.1 10.8 -24.1 24.2c0 2 .2 3.9 .7 5.7v.1c.6 2.5 15.1 32.6 21 44.7Zm2.4 -64.1c7.6 0 13.7 6.1 13.7 13.6c0 7.5 -6.1 13.6 -13.7 13.6C196.1 436 190 429.9 190 422.4c0 -7.5 6.1 -13.6 13.6 -13.6Z" class="g1_4"/>
<path d="M201.2 472.9c1.3 2.8 3.5 2.8 4.9 0c5.8 -12 19.8 -41.1 20.3 -42.3v-.2c.9 -2.5 1.4 -5.2 1.4 -8C227.8 409 217 398.2 203.6 398.2c-13.3 0 -24.1 10.8 -24.1 24.2c0 2 .2 3.9 .7 5.7v.1c.6 2.5 15.1 32.6 21 44.7Zm2.4 -64.1c7.6 0 13.7 6.1 13.7 13.6c0 7.5 -6.1 13.6 -13.7 13.6C196.1 436 190 429.9 190 422.4c0 -7.5 6.1 -13.6 13.6 -13.6Z" class="g2_4"/>
<path d="M960.2 276.9h31.9v33.3H960.2Z" class="g0_4"/>
<path d="M1040.3 276.9h310.5v37H1040.3Z" class="g0_4"/>
<path fill-rule="evenodd" d="M973.1 346.2c1.4 2.8 3.6 2.8 4.9 0c5.8 -12 19.9 -41.2 20.3 -42.4l.1 -.2c.9 -2.5 1.4 -5.2 1.4 -8c0 -13.3 -10.9 -24.1 -24.2 -24.1c-13.4 0 -24.2 10.8 -24.2 24.1c0 2 .3 3.9 .7 5.8v.1c.7 2.4 15.1 32.5 21 44.7ZM975.6 282c7.5 0 13.6 6.1 13.6 13.6c0 7.5 -6.1 13.7 -13.6 13.7c-7.5 0 -13.7 -6.2 -13.7 -13.7c0 -7.5 6.2 -13.6 13.7 -13.6Z" class="g1_4"/>
<path d="M973.1 346.2c1.4 2.8 3.6 2.8 4.9 0c5.8 -12 19.9 -41.2 20.3 -42.4l.1 -.2c.9 -2.5 1.4 -5.2 1.4 -8c0 -13.3 -10.9 -24.1 -24.2 -24.1c-13.4 0 -24.2 10.8 -24.2 24.1c0 2 .3 3.9 .7 5.8v.1c.7 2.4 15.1 32.5 21 44.7ZM975.6 282c7.5 0 13.6 6.1 13.6 13.6c0 7.5 -6.1 13.7 -13.6 13.7c-7.5 0 -13.7 -6.2 -13.7 -13.7c0 -7.5 6.2 -13.6 13.7 -13.6Z" class="g2_4"/>
<path d="M470 542.6h31.9v33.3H470Z" class="g0_4"/>
<path d="M550.1 542.6H750.7v37H550.1Z" class="g0_4"/>
<path fill-rule="evenodd" d="M483 611.9c1.3 2.7 3.5 2.7 4.8 0c5.8 -12 19.9 -41.2 20.3 -42.4l.1 -.2c.9 -2.5 1.4 -5.2 1.4 -8c0 -13.3 -10.8 -24.1 -24.2 -24.1c-13.3 0 -24.2 10.8 -24.2 24.1c0 2 .3 3.9 .7 5.7l.1 .1c.6 2.5 15.1 32.6 21 44.8Zm2.4 -64.2c7.5 0 13.6 6.1 13.6 13.6c0 7.5 -6.1 13.6 -13.6 13.6c-7.5 0 -13.6 -6.1 -13.6 -13.6c0 -7.5 6.1 -13.6 13.6 -13.6Z" class="g1_4"/>
<path d="M483 611.9c1.3 2.7 3.5 2.7 4.8 0c5.8 -12 19.9 -41.2 20.3 -42.4l.1 -.2c.9 -2.5 1.4 -5.2 1.4 -8c0 -13.3 -10.8 -24.1 -24.2 -24.1c-13.3 0 -24.2 10.8 -24.2 24.1c0 2 .3 3.9 .7 5.7l.1 .1c.6 2.5 15.1 32.6 21 44.8Zm2.4 -64.2c7.5 0 13.6 6.1 13.6 13.6c0 7.5 -6.1 13.6 -13.6 13.6c-7.5 0 -13.6 -6.1 -13.6 -13.6c0 -7.5 6.1 -13.6 13.6 -13.6Z" class="g2_4"/>
<path d="M883 348.3h31.9v33.3H883Z" class="g0_4"/>
<path d="M963.1 348.3h108v37h-108Z" class="g0_4"/>
<path fill-rule="evenodd" d="M895.9 417.6c1.4 2.8 3.6 2.8 4.9 0c5.8 -12 19.9 -41.2 20.3 -42.4l.1 -.2c.9 -2.5 1.4 -5.2 1.4 -8c0 -13.3 -10.9 -24.1 -24.2 -24.1c-13.4 0 -24.2 10.8 -24.2 24.1c0 2 .3 3.9 .7 5.8v.1c.7 2.4 15.2 32.5 21 44.7Zm2.5 -64.2c7.5 0 13.6 6.1 13.6 13.6c0 7.6 -6.1 13.7 -13.6 13.7c-7.5 0 -13.7 -6.1 -13.7 -13.7c0 -7.5 6.2 -13.6 13.7 -13.6Z" class="g1_4"/>
<path d="M895.9 417.6c1.4 2.8 3.6 2.8 4.9 0c5.8 -12 19.9 -41.2 20.3 -42.4l.1 -.2c.9 -2.5 1.4 -5.2 1.4 -8c0 -13.3 -10.9 -24.1 -24.2 -24.1c-13.4 0 -24.2 10.8 -24.2 24.1c0 2 .3 3.9 .7 5.8v.1c.7 2.4 15.2 32.5 21 44.7Zm2.5 -64.2c7.5 0 13.6 6.1 13.6 13.6c0 7.6 -6.1 13.7 -13.6 13.7c-7.5 0 -13.7 -6.1 -13.7 -13.7c0 -7.5 6.2 -13.6 13.7 -13.6Z" class="g2_4"/>
<path d="M1032.6 597.4h31.9v33.3h-31.9Z" class="g0_4"/>
<path d="M1072.1 661.2h310.5v82.7H1072.1Z" class="g0_4"/>
<path fill-rule="evenodd" d="M1045.5 666.7c1.4 2.7 3.6 2.7 4.9 0c5.8 -12 19.8 -41.2 20.3 -42.4l.1 -.2c.8 -2.5 1.3 -5.2 1.3 -8c0 -13.3 -10.8 -24.1 -24.1 -24.1c-13.4 0 -24.2 10.8 -24.2 24.1c0 2 .2 3.9 .7 5.7v.1c.6 2.5 15.1 32.6 21 44.8Zm2.5 -64.2c7.5 0 13.6 6.1 13.6 13.6c0 7.5 -6.1 13.6 -13.6 13.6c-7.6 0 -13.7 -6.1 -13.7 -13.6c0 -7.5 6.1 -13.6 13.7 -13.6Z" class="g1_4"/>
<path d="M1045.5 666.7c1.4 2.7 3.6 2.7 4.9 0c5.8 -12 19.8 -41.2 20.3 -42.4l.1 -.2c.8 -2.5 1.3 -5.2 1.3 -8c0 -13.3 -10.8 -24.1 -24.1 -24.1c-13.4 0 -24.2 10.8 -24.2 24.1c0 2 .2 3.9 .7 5.7v.1c.6 2.5 15.1 32.6 21 44.8Zm2.5 -64.2c7.5 0 13.6 6.1 13.6 13.6c0 7.5 -6.1 13.6 -13.6 13.6c-7.6 0 -13.7 -6.1 -13.7 -13.6c0 -7.5 6.1 -13.6 13.7 -13.6Z" class="g2_4"/>
<path d="M316.6 223h31.9v33.3H316.6Z" class="g0_4"/>
<path d="M356.2 286.8H743.9v56.7H356.2Z" class="g0_4"/>
<path fill-rule="evenodd" d="M329.6 292.3c1.3 2.8 3.5 2.8 4.8 0c5.8 -12 19.9 -41.2 20.3 -42.4l.1 -.2c.9 -2.5 1.4 -5.2 1.4 -8c0 -13.3 -10.8 -24.1 -24.2 -24.1c-13.3 0 -24.2 10.8 -24.2 24.1c0 2 .3 3.9 .7 5.8l.1 .1c.6 2.4 15.1 32.5 21 44.7ZM332 228.1c7.5 0 13.6 6.1 13.6 13.6c0 7.5 -6.1 13.7 -13.6 13.7c-7.5 0 -13.6 -6.2 -13.6 -13.7c0 -7.5 6.1 -13.6 13.6 -13.6Z" class="g1_4"/>
<path d="M329.6 292.3c1.3 2.8 3.5 2.8 4.8 0c5.8 -12 19.9 -41.2 20.3 -42.4l.1 -.2c.9 -2.5 1.4 -5.2 1.4 -8c0 -13.3 -10.8 -24.1 -24.2 -24.1c-13.3 0 -24.2 10.8 -24.2 24.1c0 2 .3 3.9 .7 5.8l.1 .1c.6 2.4 15.1 32.5 21 44.7ZM332 228.1c7.5 0 13.6 6.1 13.6 13.6c0 7.5 -6.1 13.7 -13.6 13.7c-7.5 0 -13.6 -6.2 -13.6 -13.7c0 -7.5 6.1 -13.6 13.6 -13.6Z" class="g2_4"/>
<image preserveAspectRatio="none" x="1336" y="69" width="14" height="12" xlink:href="img/2.png"/>
<image preserveAspectRatio="none" x="1287" y="59" width="111" height="21" xlink:href="img/3.png"/>
</svg>