<?xml version="1.0" encoding="UTF-8" standalone="no"?>
<!DOCTYPE svg PUBLIC "-//W3C//DTD SVG 1.1//EN"
"http://www.w3.org/Graphics/SVG/1.1/DTD/svg11.dtd">
<svg viewBox="0 0 1466 825" version="1.1" xmlns="http://www.w3.org/2000/svg" xmlns:xlink="http://www.w3.org/1999/xlink">
<defs>
<clipPath id="c0_7"><path d="M0 825V0H1466.3V825Z"/></clipPath>
<clipPath id="c1_7"><path d="M0 586.7V0H1466.7V586.7Z"/></clipPath>
<clipPath id="c2_7"><path d="M209.8 588.2V293.4H536.9V588.2Z"/></clipPath>
<clipPath id="c3_7"><path d="M593.3 588.2V293.4h327V588.2Z"/></clipPath>
<clipPath id="c4_7"><path d="M983 588.2V293.4h327V588.2Z"/></clipPath>
<style type="text/css"><![CDATA[
.g0_7{
fill: #FFF;
}
.g1_7{
fill: #000;
fill-opacity: 0.49;
}
.g2_7{
fill: #FFC000;
}
]]></style>
</defs>
<path clip-path="url(#c0_7)" d="M0 0H1466.3V825H0Z" class="g0_7"/>
<path d="M0 0H1466.7V825H0Z" class="g0_7"/>
<g clip-path="url(#c1_7)">
<image x="0" y="0" width="1467" height="587" xlink:href="shade/1.png"/>
<image preserveAspectRatio="none" x="0" y="-25" width="1467" height="823" xlink:href="img/1.jpg"/>
</g>
<path d="M-.5 0H1466.1V586.7H-.5Z" class="g1_7"/>
<image preserveAspectRatio="none" x="180" y="484" width="429" height="328" xlink:href="img/2.png"/>
<path d="M209.8 513.9H536.9V742.6H209.8Z" class="g0_7"/>
<path fill-rule="evenodd" d="M273.9 715.8H469.5v1.5H273.9Z" class="g2_7"/>
<g clip-path="url(#c2_7)">
<image x="209" y="293" width="328" height="296" xlink:href="shade/2.png"/>
<image preserveAspectRatio="none" x="-274" y="128" width="904" height="510" xlink:href="img/3.jpg"/>
</g>
<image preserveAspectRatio="none" x="564" y="484" width="428" height="328" xlink:href="img/4.png"/>
<path d="M593.3 513.9h327V742.6h-327Z" class="g0_7"/>
<path fill-rule="evenodd" d="M625.3 715.8H883.4v1.5H625.3Z" class="g2_7"/>
<g clip-path="url(#c3_7)">
<image x="593" y="293" width="328" height="296" xlink:href="shade/3.png"/>
<image preserveAspectRatio="none" x="593" y="277" width="327" height="327" xlink:href="img/5.jpg"/>
</g>
<image preserveAspectRatio="none" x="953" y="484" width="429" height="328" xlink:href="img/6.png"/>
<path d="M983 513.9h327V742.6H983Z" class="g0_7"/>
<path fill-rule="evenodd" d="M1054.7 715.8h178.7v1.5H1054.7Z" class="g2_7"/>
<g clip-path="url(#c4_7)">
<image x="982" y="293" width="329" height="296" xlink:href="shade/4.png"/>
<image preserveAspectRatio="none" x="983" y="223" width="327" height="436" xlink:href="img/7.jpg"/>
</g>
</svg>