<?xml version="1.0" encoding="UTF-8" standalone="no"?>
<!DOCTYPE svg PUBLIC "-//W3C//DTD SVG 1.1//EN"
"http://www.w3.org/Graphics/SVG/1.1/DTD/svg11.dtd">
<svg viewBox="0 0 1466 825" version="1.1" xmlns="http://www.w3.org/2000/svg" xmlns:xlink="http://www.w3.org/1999/xlink">
<defs>
<clipPath id="c0_1"><path d="M0 825V0H1466.3V825Z"/></clipPath>
<clipPath id="c1_1"><path d="M183.1 291.1V86.4H485.6V291.1Z"/></clipPath>
<style type="text/css"><![CDATA[
.g0_1{
fill: #FFF;
}
.g1_1{
fill: #000;
fill-opacity: 0.71;
}
.g2_1{
fill: #FFC000;
}
.g3_1{
fill: #FDBC13;
}
]]></style>
</defs>
<path clip-path="url(#c0_1)" d="M0 0H1466.3V825H0Z" class="g0_1"/>
<path d="M0 0H1466.7V825H0Z" class="g0_1"/>
<image preserveAspectRatio="none" x="-4" y="-205" width="1981" height="1114" xlink:href="img/1.jpg"/>
<path d="M-4.4 -5.9H766.9V825H-4.4Z" class="g1_1"/>
<path fill-rule="evenodd" d="M189.5 664.7c0 -5.3 4.3 -9.5 9.5 -9.5H469.6c5.2 0 9.5 4.2 9.5 9.5v37.9c0 5.3 -4.3 9.5 -9.5 9.5H199c-5.2 0 -9.5 -4.2 -9.5 -9.5Z" class="g2_1"/>
<path clip-path="url(#c1_1)" d="M223.5 256.4c0 -7.6 -7 -13.8 -15.6 -13.8c-8.6 0 -15.6 6.2 -15.6 13.8c0 7.7 7 13.9 15.6 13.9c8.6 0 15.6 -6.2 15.6 -13.9m9.3 0c0 12.2 -11.1 22 -24.9 22c-13.7 0 -24.8 -9.8 -24.8 -22c0 -12.1 11.1 -21.9 24.8 -21.9c13.8 0 24.9 9.8 24.9 21.9Z" class="g3_1"/>
<path d="M291.6 235.7v41.5h-9.2V248.9c0 -1.2 .2 -2.3 .6 -3.4l1.1 -2.7l-1.2 -.4l-1.5 3.8c-.1 .4 -.3 .7 -.5 1.1l-12.2 21.8h-10L247 248.1h.1l-2.3 -5.7l-1.2 .4l1.1 2.7c.4 1.1 .6 2.2 .6 3.4v28.3h-9.2V235.7h13.3l12.7 22.8c.7 1.4 1.1 2.9 1.1 4.5v1.5h1.3v-1.9c0 -1.6 .4 -3.1 1.1 -4.5l12.5 -22.4Z" class="g3_1"/>
<path d="M327.5 235.7v6.9h-22v34.6h-9.2V235.7Z" class="g3_1"/>
<path d="M379.4 256.5c0 12.1 -8.9 22 -19.7 22c-10.9 0 -19.7 -8.8 -19.7 -19.7h9.3c0 6.4 4.6 11.6 10.4 11.6c5.7 0 10.4 -6.2 10.4 -13.9c0 -7.6 -7 -13.8 -15.6 -13.8c-8.6 0 -15.6 6.2 -15.6 13.8v34.6h-9.3V235.8h9.3v.5c0 1.3 -.3 2.6 -.8 3.8l-2.1 4.6l1.1 .5l1.7 -3.6c.9 -2.1 2.6 -3.8 4.7 -4.8c3.3 -1.4 7.1 -2.2 11 -2.2c13.7 0 24.9 9.8 24.9 21.9Z" class="g3_1"/>
<path d="M431 235.7v41.5h-9.2V256.4c0 -7.6 -7 -13.8 -15.6 -13.8c-8.6 0 -15.6 6.2 -15.6 13.8c0 7.7 4.6 13.9 10.4 13.9c5.7 0 10.4 -5.2 10.4 -11.5h9.2c0 10.8 -8.8 19.6 -19.6 19.6c-10.9 0 -19.7 -9.8 -19.7 -22c0 -12.1 11.1 -21.9 24.9 -21.9c3.9 0 7.6 .8 10.9 2.3c2.2 .9 3.9 2.6 4.8 4.7l1.6 3.7l1.2 -.5L422.6 240c-.5 -1.2 -.8 -2.5 -.8 -3.8v-.5Z" class="g3_1"/>
<path clip-path="url(#c1_1)" d="M469.4 242.5H450.9l-1.2 24.2c0 .8 -.1 1.6 -.3 2.4h20Zm16.2 26.6l-1.2 13.8h-8.1v-3.8c0 -.6 .2 -1.1 .5 -1.6l2.3 -3.5l-1 -.7l-1.7 2.5c-.5 .8 -1.4 1.3 -2.4 1.3H445.1c-1 0 -1.9 -.5 -2.5 -1.3L441 273.3l-1.1 .7l2.4 3.5c.3 .5 .5 1 .5 1.6v3.8h-8.1l-1.2 -12.7h2.3c2.6 0 4.6 -1.5 4.6 -3.5l1.2 -31.1h37v33.5Z" class="g3_1"/>
<path d="M282.2 107.4c0 1.7 -1.4 3.1 -3.1 3.1c-1.7 0 -3.1 -1.4 -3.1 -3.1c0 -1.7 1.4 -3 3.1 -3c1.7 0 3.1 1.3 3.1 3Z" class="g3_1"/>
<path d="M391.7 107.4c0 1.7 -1.4 3.1 -3.1 3.1c-1.7 0 -3.1 -1.4 -3.1 -3.1c0 -1.7 1.4 -3 3.1 -3c1.7 0 3.1 1.3 3.1 3Z" class="g3_1"/>
<path d="M316 89.6c0 1.7 -1.4 3.1 -3.1 3.1c-1.7 0 -3.1 -1.4 -3.1 -3.1c0 -1.7 1.4 -3.1 3.1 -3.1c1.7 0 3.1 1.4 3.1 3.1Z" class="g3_1"/>
<path d="M358.3 89.6c0 1.7 -1.4 3.1 -3.1 3.1c-1.7 0 -3.1 -1.4 -3.1 -3.1c0 -1.7 1.4 -3.1 3.1 -3.1c1.7 0 3.1 1.4 3.1 3.1Z" class="g3_1"/>
<path clip-path="url(#c1_1)" d="M273.7 165.6V123c5.2 .3 10.2 1.8 14.6 4.1v67.4c-8.8 -6.5 -14.6 -17 -14.6 -28.9m19.1 -62.8c7.7 .4 14.8 2.9 20.7 7c-4.1 7.6 -6.3 16.2 -6.3 25.1v5c-3.4 -6.3 -8.3 -11.6 -14.4 -15.4Zm33.1 -2.2l7.9 -7.8l7.9 7.8c2.5 2.5 4.6 5.2 6.5 8c-6.6 5.4 -11.7 12.7 -14.4 21c-2.7 -8.3 -7.7 -15.6 -14.3 -21c1.8 -2.8 4 -5.5 6.4 -8m48.9 2.2v21.7c-6 3.8 -11 9.1 -14.4 15.4v-5c0 -8.9 -2.1 -17.5 -6.3 -25.1c6 -4.1 13.1 -6.6 20.7 -7m-14.4 98.7V154.7c1.2 -10.1 6.6 -19 14.4 -24.8v67.4c-4.3 2.4 -9.2 3.8 -14.4 4.2M307.2 198v3.5c-5.2 -.4 -10 -1.8 -14.4 -4.2V129.9c7.8 5.8 13.3 14.7 14.4 24.8Zm28.9 -33.7l10 10c5.4 5.4 8.7 12.3 9.6 19.7v7.5H336.1ZM311.9 194c.9 -7.4 4.3 -14.3 9.7 -19.7l10 -10v37.2H311.9Zm38.6 -81.5c3.6 6.9 5.5 14.5 5.5 22.4v19.5c-.2 1.5 -.3 2.9 -.3 4.4v20.8c-1.7 -3 -3.9 -5.9 -6.4 -8.5L336.1 157.9V143.6c0 -12.4 5.6 -23.6 14.4 -31.1m-18.9 31.1v14.3l-13.2 13.2c-2.6 2.6 -4.7 5.5 -6.5 8.5V158.8c0 -1.5 0 -2.9 -.2 -4.4V134.9c0 -7.9 1.9 -15.5 5.5 -22.4c8.8 7.5 14.4 18.7 14.4 31.1M394 123v42.6c0 11.9 -5.8 22.4 -14.7 28.9V127.1c4.5 -2.3 9.4 -3.8 14.7 -4.1m4.5 42.6V118.4h-2.3c-6 0 -11.7 1.4 -16.9 3.7V98.3h-2.2c-9.4 0 -18.1 2.8 -25.3 7.6c-2 -3 -4.3 -5.8 -6.9 -8.4L333.8 86.4l-11 11.1c-2.7 2.6 -5 5.4 -6.9 8.4c-7.3 -4.8 -16 -7.6 -25.3 -7.6h-2.3v23.8c-5.1 -2.3 -10.8 -3.7 -16.9 -3.7h-2.2v47.2c0 14.5 7.6 27.2 19.1 34.3v.4c-5 1.4 -8 3.1 -8 4.8c0 5.1 24 9.2 53.5 9.2c29.6 0 53.5 -4.1 53.5 -9.2c0 -1.7 -2.9 -3.4 -8 -4.8v-.4c11.5 -7.1 19.2 -19.8 19.2 -34.3Z" class="g3_1"/>
</svg>